<?xml version="1.0" standalone="no"?>
<!DOCTYPE svg PUBLIC "-//W3C//DTD SVG 20010904//EN"
 "http://www.w3.org/TR/2001/REC-SVG-20010904/DTD/svg10.dtd">
<svg version="1.0" xmlns="http://www.w3.org/2000/svg"
 width="1192.000000pt" height="608.000000pt" viewBox="0 0 1192.000000 608.000000"
 preserveAspectRatio="xMidYMid meet">

<g transform="translate(0.000000,608.000000) scale(0.100000,-0.100000)"
fill="#8a2be2" stroke="none">
<path d="M2222 5870 c-93 -58 -76 -194 30 -243 34 -16 48 -28 48 -42 0 -35
-39 -85 -90 -117 -49 -30 -49 -31 -35 -59 22 -41 31 -43 81 -14 64 38 108 78
144 134 39 62 50 100 51 177 1 69 -13 104 -60 148 -41 40 -120 47 -169 16z"/>
<path d="M2569 5873 c-59 -36 -81 -138 -42 -192 16 -22 77 -61 116 -74 32 -10
-40 -112 -112 -158 l-24 -15 19 -32 c22 -39 28 -39 79 -6 95 63 153 135 179
224 22 73 20 125 -5 177 -40 82 -141 119 -210 76z"/>
<path d="M3190 5610 c0 -7 1407 -10 4200 -10 2793 0 4200 3 4200 10 0 7 -1407
10 -4200 10 -2793 0 -4200 -3 -4200 -10z"/>
<path d="M505 5600 c-4 -7 208 -10 629 -10 417 0 636 3 636 10 0 7 -216 10
-629 10 -409 0 -632 -4 -636 -10z"/>
<path d="M3291 4972 c-8 -3 -11 -82 -11 -263 l0 -259 45 0 45 0 0 259 0 259
-34 4 c-19 2 -39 2 -45 0z"/>
<path d="M7633 4973 l-23 -4 0 -260 0 -259 40 0 c33 0 40 3 40 20 0 24 8 25
35 4 60 -45 149 -37 202 18 41 43 53 76 53 149 0 72 -25 127 -72 161 -46 32
-133 33 -177 0 l-31 -23 0 96 c0 52 -4 95 -9 95 -5 0 -15 2 -23 4 -7 2 -23 1
-35 -1z m240 -254 c21 -23 27 -39 27 -75 0 -77 -38 -123 -101 -124 -96 0 -144
133 -73 203 44 44 102 43 147 -4z"/>
<path d="M8528 4973 c-17 -4 -18 -25 -18 -264 l0 -259 40 0 40 0 0 259 c0 287
2 281 -62 264z"/>
<path d="M2140 4943 c0 -4 22 -77 49 -162 27 -86 61 -195 76 -243 26 -87 27
-88 59 -88 l32 0 59 147 c53 133 59 145 69 123 6 -13 34 -78 61 -145 50 -120
51 -120 84 -120 l34 0 73 235 c41 129 74 241 74 248 0 8 -15 12 -43 12 l-43 0
-49 -167 c-44 -152 -65 -209 -65 -175 0 7 -21 69 -46 137 l-47 125 -38 0 -38
0 -50 -130 c-28 -72 -51 -136 -52 -143 0 -6 -11 24 -23 68 -13 44 -37 126 -55
183 l-32 102 -44 0 c-25 0 -45 -3 -45 -7z"/>
<path d="M6474 4933 c6 -23 124 -408 137 -450 9 -28 15 -33 43 -33 l32 0 59
147 c46 116 60 143 67 127 4 -10 32 -75 62 -144 53 -124 54 -125 86 -125 l33
0 73 235 c41 129 74 241 74 248 0 8 -15 12 -43 12 l-43 0 -49 -167 c-26 -93
-51 -171 -54 -175 -3 -4 -28 54 -55 128 l-48 134 -38 0 -38 0 -51 -129 c-28
-71 -51 -135 -52 -142 0 -8 -11 24 -25 71 -14 47 -38 129 -55 183 l-30 97 -45
0 c-38 0 -45 -3 -40 -17z"/>
<path d="M5620 4870 l0 -50 -36 0 c-35 0 -35 -1 -32 -37 3 -36 4 -38 36 -35
l32 4 0 -152 0 -151 43 3 42 3 5 150 c3 83 8 149 13 148 4 -2 21 -3 37 -3 28
0 30 3 30 35 0 34 -1 35 -40 35 l-40 0 0 50 0 50 -45 0 -45 0 0 -50z"/>
<path d="M2942 4809 c-99 -49 -131 -204 -61 -293 53 -67 175 -89 257 -47 47
24 50 32 25 65 l-17 23 -34 -20 c-49 -29 -117 -19 -154 22 -51 57 -44 61 108
61 l136 0 -4 53 c-5 65 -34 110 -88 137 -51 26 -114 25 -168 -1z m156 -85 c12
-14 22 -29 22 -35 0 -5 -42 -9 -95 -9 -52 0 -95 3 -95 6 0 18 26 48 53 60 42
18 87 10 115 -22z"/>
<path d="M3542 4809 c-74 -37 -116 -139 -93 -226 12 -45 50 -96 84 -115 65
-34 164 -26 217 19 l30 24 -21 29 -21 28 -35 -24 c-68 -46 -140 -24 -168 51
-16 40 -16 49 -4 81 28 75 109 100 171 54 l30 -22 26 25 c22 23 24 28 11 43
-43 52 -155 68 -227 33z"/>
<path d="M3940 4814 c-53 -23 -89 -63 -105 -118 -39 -131 49 -249 185 -249
120 0 201 93 187 216 -16 127 -149 202 -267 151z m153 -95 c48 -51 32 -160
-28 -187 -72 -33 -143 9 -152 89 -13 116 103 180 180 98z"/>
<path d="M4434 4816 c-18 -8 -35 -19 -38 -25 -11 -18 -26 -13 -26 9 0 17 -7
20 -40 20 l-40 0 0 -186 0 -185 43 3 42 3 5 133 c6 151 11 162 81 162 61 0 69
-21 69 -172 l0 -128 40 0 40 0 0 109 c0 157 16 191 94 191 57 0 66 -23 66
-173 l0 -128 43 3 42 3 0 140 c0 123 -2 144 -21 175 -24 41 -56 60 -104 60
-36 0 -95 -30 -116 -58 -10 -14 -13 -13 -23 6 -25 47 -97 64 -157 38z"/>
<path d="M5032 4809 c-101 -51 -132 -208 -57 -297 55 -65 171 -85 253 -43 47
24 50 32 25 65 l-17 23 -34 -20 c-49 -29 -117 -19 -154 22 -51 57 -44 61 108
61 l136 0 -4 54 c-11 127 -137 194 -256 135z m156 -85 c12 -14 22 -29 22 -35
0 -5 -42 -9 -95 -9 -52 0 -95 3 -95 6 0 18 26 48 53 60 42 18 87 10 115 -22z"/>
<path d="M5932 4809 c-155 -77 -124 -321 45 -357 88 -19 178 19 214 90 23 45
27 125 9 173 -37 98 -168 143 -268 94z m158 -74 c24 -15 42 -69 37 -114 -9
-82 -84 -124 -156 -86 -52 27 -71 124 -33 175 32 43 104 55 152 25z"/>
<path d="M7274 4811 c-73 -33 -110 -103 -102 -197 11 -134 155 -206 291 -146
26 11 47 25 47 29 0 4 -9 19 -19 32 -18 24 -19 24 -54 8 -68 -32 -143 -14
-172 43 -8 16 -15 31 -15 35 0 3 64 5 141 5 l142 0 -6 51 c-15 127 -135 194
-253 140z m132 -70 c17 -10 34 -28 37 -40 5 -20 2 -21 -89 -21 -102 0 -114 8
-71 47 38 36 80 40 123 14z"/>
<path d="M8142 4809 c-107 -53 -135 -205 -55 -300 37 -44 78 -61 144 -61 131
0 216 107 187 235 -27 120 -163 182 -276 126z m133 -63 c73 -31 88 -143 26
-198 -74 -66 -177 -8 -174 99 1 44 27 81 66 98 40 18 41 18 82 1z"/>
<path d="M8760 4810 c-80 -48 -112 -158 -76 -255 41 -106 163 -142 250 -74
l26 20 0 -25 c0 -24 4 -26 40 -26 l40 0 0 185 0 185 -40 0 c-34 0 -40 -3 -40
-21 0 -20 0 -20 -32 2 -45 32 -122 36 -168 9z m173 -89 c25 -24 34 -101 17
-141 -35 -86 -160 -76 -190 15 -22 66 17 148 73 157 32 5 78 -9 100 -31z"/>
<path d="M9295 4818 c-11 -6 -30 -20 -42 -31 l-23 -20 0 26 c0 25 -3 27 -40
27 l-40 0 0 -185 0 -185 39 0 39 0 4 121 c3 119 3 121 32 146 21 18 38 24 64
21 31 -2 37 1 43 22 16 57 11 70 -23 70 -18 0 -42 -6 -53 -12z"/>
<path d="M9451 4708 c28 -62 66 -147 85 -190 l34 -76 -30 -70 c-17 -39 -30
-74 -30 -77 0 -3 19 -5 42 -3 40 3 42 5 61 53 21 53 154 375 181 438 l16 37
-49 0 -50 0 -19 -52 c-10 -29 -32 -88 -47 -131 -15 -43 -31 -74 -35 -70 -5 4
-31 63 -60 131 l-52 122 -49 0 -48 0 50 -112z"/>
<path d="M10050 3916 c-29 -36 14 -91 62 -78 28 7 43 44 29 71 -14 25 -72 29
-91 7z"/>
<path d="M3345 3903 c-60 -11 -86 -42 -95 -113 -4 -40 -8 -45 -30 -45 -22 0
-25 -5 -28 -38 -3 -35 -2 -37 27 -37 l31 0 0 -145 0 -145 40 0 40 0 0 145 0
145 45 0 c45 0 45 0 45 35 0 36 -9 41 -63 37 -21 -2 -31 20 -23 52 6 26 31 37
61 26 16 -6 23 -1 33 23 7 17 9 34 4 39 -12 12 -64 25 -87 21z"/>
<path d="M7460 3902 c-6 -2 -10 -99 -10 -263 l0 -259 45 0 45 0 -2 262 -3 261
-33 1 c-17 1 -37 0 -42 -2z"/>
<path d="M6560 3640 l0 -260 40 0 c33 0 40 3 40 20 0 24 4 25 34 5 64 -43 145
-37 200 13 40 37 56 81 56 152 0 111 -57 180 -154 188 -42 3 -57 -1 -88 -22
l-38 -25 0 94 0 95 -45 0 -45 0 0 -260z m263 9 c21 -23 27 -39 27 -75 0 -77
-38 -123 -101 -124 -96 0 -144 133 -73 203 44 44 102 43 147 -4z"/>
<path d="M480 3835 l0 -45 70 0 70 0 0 -205 0 -205 45 0 45 0 0 205 0 205 75
0 75 0 0 45 0 45 -190 0 -190 0 0 -45z"/>
<path d="M4784 3863 c4 -10 48 -123 99 -250 l92 -233 41 0 41 0 97 240 c53
132 96 244 96 250 0 7 -18 10 -46 8 l-46 -3 -67 -182 c-58 -160 -81 -209 -81
-173 0 6 -30 89 -67 185 l-68 175 -49 0 c-42 0 -47 -2 -42 -17z"/>
<path d="M9068 3803 c-3 -48 -3 -48 -40 -51 -36 -3 -38 -5 -38 -37 0 -32 2
-34 38 -37 l37 -3 3 -147 3 -148 39 0 40 0 0 145 c0 143 0 145 23 150 13 4 30
5 38 3 10 -2 15 8 17 35 l3 37 -40 0 -41 0 0 50 0 50 -39 0 -40 0 -3 -47z"/>
<path d="M1050 3753 c-8 -3 -27 -17 -42 -31 l-28 -26 0 27 c0 25 -3 27 -45 27
l-45 0 0 -185 0 -185 45 0 45 0 0 119 0 119 32 27 c24 20 40 26 64 23 31 -4
33 -2 43 39 6 23 11 44 11 47 0 7 -60 6 -80 -1z"/>
<path d="M1902 3739 c-107 -53 -135 -205 -55 -300 37 -44 78 -61 144 -61 114
0 190 75 190 186 0 28 -5 65 -11 81 -37 98 -168 143 -268 94z m154 -76 c55
-35 57 -138 4 -185 -74 -67 -176 -8 -173 100 3 86 96 132 169 85z"/>
<path d="M2855 3748 c-11 -6 -30 -20 -42 -31 l-23 -20 0 26 c0 25 -3 27 -40
27 l-40 0 0 -185 0 -185 40 0 40 0 0 116 c0 115 0 116 30 146 25 25 37 29 65
26 33 -4 36 -2 45 31 5 20 10 42 10 49 0 15 -57 16 -85 0z"/>
<path d="M3630 3743 c-14 -9 -30 -24 -37 -33 -10 -13 -12 -11 -18 13 -6 24
-12 27 -46 27 l-39 0 0 -185 0 -185 45 0 45 0 0 120 c0 106 2 122 20 140 22
22 62 35 89 27 15 -4 21 2 26 30 3 19 9 41 12 49 8 21 -66 19 -97 -3z"/>
<path d="M3855 3741 c-68 -31 -105 -93 -105 -175 0 -77 37 -138 104 -173 44
-23 132 -21 189 4 52 24 55 31 28 64 -18 22 -19 22 -54 6 -43 -21 -77 -21
-122 -3 -28 12 -65 58 -65 81 0 3 64 5 141 5 l142 0 -6 51 c-8 64 -36 109 -85
137 -49 27 -112 28 -167 3z m141 -76 c12 -8 24 -23 27 -34 5 -20 1 -21 -89
-21 -102 0 -114 8 -71 47 37 35 87 38 133 8z"/>
<path d="M4275 3743 c-69 -36 -104 -96 -105 -175 0 -79 36 -139 104 -175 45
-23 135 -20 190 6 25 13 46 26 46 29 0 4 -9 18 -19 31 -18 24 -19 24 -54 8
-68 -32 -143 -14 -172 43 -8 16 -15 31 -15 35 0 3 63 5 140 5 158 0 153 -3
129 85 -27 101 -153 157 -244 108z m119 -67 c30 -13 56 -50 43 -62 -2 -3 -46
-3 -97 -2 l-93 3 27 32 c23 27 36 34 79 42 4 0 23 -5 41 -13z"/>
<path d="M5370 3744 c-76 -33 -112 -89 -113 -174 0 -76 36 -141 95 -171 50
-26 141 -28 185 -5 134 69 134 280 1 345 -52 25 -118 27 -168 5z m114 -68 c45
-19 66 -52 66 -104 0 -53 -20 -94 -55 -110 -43 -20 -82 -14 -116 16 -64 57
-44 179 33 201 18 5 34 10 36 10 1 1 18 -5 36 -13z"/>
<path d="M5805 3743 c-67 -35 -104 -96 -105 -168 -1 -155 142 -245 278 -176
52 27 61 46 35 73 -20 20 -20 20 -59 -1 -46 -25 -75 -26 -114 -6 -99 51 -62
218 48 218 25 0 51 -8 70 -22 38 -26 38 -26 58 4 16 24 16 27 -2 47 -42 47
-149 63 -209 31z"/>
<path d="M6185 3746 c-62 -27 -105 -103 -105 -187 0 -49 45 -134 83 -158 55
-33 118 -32 171 4 l36 24 0 -24 c0 -23 4 -25 45 -25 l45 0 0 185 0 185 -45 0
c-38 0 -45 -3 -45 -20 0 -18 -2 -18 -36 5 -42 28 -100 32 -149 11z m153 -89
c69 -63 29 -207 -58 -207 -70 0 -110 45 -110 124 0 97 98 146 168 83z"/>
<path d="M7714 3746 c-87 -38 -128 -181 -79 -276 49 -93 172 -124 241 -59 l24
22 0 -26 c0 -25 3 -27 45 -27 l45 0 0 185 0 185 -45 0 c-38 0 -45 -3 -45 -20
0 -18 -2 -18 -36 5 -42 28 -100 32 -150 11z m161 -93 c66 -67 22 -203 -66
-203 -72 0 -116 55 -107 134 6 54 28 83 72 94 43 11 71 4 101 -25z"/>
<path d="M8245 3748 c-11 -6 -30 -20 -42 -31 l-23 -20 0 26 c0 25 -3 27 -40
27 l-40 0 0 -185 0 -185 40 0 40 0 0 116 c0 115 0 116 30 146 25 25 37 29 65
26 33 -4 36 -2 45 31 5 20 10 42 10 49 0 15 -57 16 -85 0z"/>
<path d="M9427 3730 c-35 -30 -47 -30 -47 2 0 14 -8 18 -40 18 l-40 0 0 -185
0 -185 45 0 45 0 0 120 c0 106 2 122 20 140 22 22 62 35 89 27 15 -4 21 2 26
30 3 19 9 41 12 49 4 11 -4 14 -36 14 -30 0 -48 -7 -74 -30z"/>
<path d="M9650 3740 c-80 -48 -112 -158 -76 -255 41 -106 163 -142 250 -74
l26 20 0 -25 c0 -24 4 -26 40 -26 l40 0 0 185 0 185 -40 0 c-34 0 -40 -3 -40
-21 0 -20 0 -20 -32 2 -45 32 -122 36 -168 9z m173 -89 c25 -24 34 -101 17
-141 -24 -57 -104 -78 -153 -40 -69 54 -52 187 27 208 37 10 83 -1 109 -27z"/>
<path d="M10376 3735 c-44 -30 -46 -30 -46 -5 0 17 -7 20 -40 20 l-40 0 0
-185 0 -185 40 0 40 0 0 124 c0 108 3 126 20 148 22 29 69 42 104 28 35 -13
46 -59 46 -186 l0 -114 40 0 40 0 0 135 c0 154 -14 206 -61 230 -43 23 -101
19 -143 -10z"/>
<path d="M10765 3743 c-76 -40 -111 -106 -103 -197 9 -103 80 -168 187 -169
55 0 151 33 151 51 0 4 -9 18 -19 31 -18 24 -19 24 -54 8 -68 -32 -143 -14
-172 43 -8 16 -15 31 -15 35 0 3 63 5 140 5 158 0 153 -3 129 85 -27 101 -153
157 -244 108z m119 -67 c30 -13 56 -50 43 -62 -2 -3 -46 -3 -97 -2 l-93 3 27
32 c23 27 36 34 79 42 4 0 23 -5 41 -13z"/>
<path d="M11245 3748 c-11 -6 -30 -20 -42 -31 l-23 -20 0 26 c0 25 -3 27 -40
27 l-40 0 0 -185 0 -185 40 0 40 0 0 116 c0 115 0 116 30 146 25 25 37 29 65
26 33 -4 36 -2 45 31 5 20 10 42 10 49 0 15 -57 16 -85 0z"/>
<path d="M1150 3745 c0 -3 36 -85 80 -182 44 -97 80 -182 80 -190 0 -8 -13
-45 -30 -84 l-29 -69 44 0 c43 0 44 1 61 48 10 26 57 143 106 260 48 117 88
215 88 217 0 3 -21 5 -47 5 l-48 0 -44 -125 c-24 -69 -47 -127 -51 -130 -4 -3
-32 54 -61 125 l-54 130 -47 0 c-27 0 -48 -2 -48 -5z"/>
<path d="M2270 3608 c0 -124 3 -147 20 -175 10 -17 29 -37 42 -44 38 -20 105
-14 149 15 l39 26 0 -25 c0 -23 4 -25 40 -25 l40 0 0 185 0 185 -40 0 -40 0 0
-109 c0 -157 -16 -191 -94 -191 -25 0 -40 7 -55 26 -19 24 -21 40 -21 150 l0
124 -40 0 -40 0 0 -142z"/>
<path d="M7020 3608 c0 -124 3 -147 20 -175 25 -41 51 -55 107 -55 31 0 56 8
84 26 l39 26 0 -25 c0 -23 4 -25 40 -25 l40 0 0 185 0 185 -40 0 -40 0 0 -109
c0 -157 -16 -191 -94 -191 -25 0 -40 7 -55 26 -19 24 -21 40 -21 150 l0 124
-40 0 -40 0 0 -142z"/>
<path d="M8350 3747 c0 -2 38 -87 84 -189 l83 -186 -33 -76 -33 -76 43 0 43 0
102 248 c57 136 105 255 108 265 5 16 0 18 -43 15 l-48 -3 -45 -127 c-25 -71
-48 -128 -52 -128 -3 0 -30 59 -59 130 l-54 130 -48 0 c-26 0 -48 -1 -48 -3z"/>
<path d="M10050 3565 l0 -185 45 0 45 0 0 185 0 185 -45 0 -45 0 0 -185z"/>
<path d="M11369 3457 c-33 -17 -34 -39 -4 -75 29 -35 24 -57 -17 -86 -21 -15
-21 -17 -6 -32 20 -20 47 -8 83 40 57 75 15 188 -56 153z"/>
<path d="M11333 2843 c-10 -4 -13 -65 -13 -264 l0 -259 45 0 45 0 0 64 c0 44
5 67 15 76 19 16 28 9 97 -76 l51 -64 54 0 54 0 -72 83 c-119 137 -117 117
-20 209 l84 78 -58 0 -58 0 -73 -77 -74 -78 0 153 c0 114 -3 152 -12 153 -7 1
-22 3 -33 4 -11 1 -26 0 -32 -2z"/>
<path d="M1900 2750 c0 -49 -2 -90 -5 -90 -3 0 -22 9 -42 20 -105 56 -219 -5
-245 -131 -34 -166 125 -292 258 -204 30 20 34 19 34 -5 0 -17 7 -20 40 -20
l40 0 0 260 0 260 -40 0 -40 0 0 -90z m-54 -139 c60 -37 69 -130 18 -191 -21
-24 -34 -30 -66 -30 -21 0 -48 5 -59 10 -50 27 -66 136 -28 184 38 48 85 57
135 27z"/>
<path d="M442 2768 c-11 -29 -54 -140 -96 -246 -42 -106 -76 -195 -76 -198 0
-2 19 -4 43 -4 l42 0 23 60 24 60 98 0 99 0 22 -60 22 -60 43 0 c29 0 44 4 43
13 0 6 -42 118 -92 247 l-92 235 -42 3 -41 3 -20 -53z m90 -146 c15 -42 30
-85 33 -94 6 -16 0 -18 -65 -18 -53 0 -70 3 -67 13 3 6 18 49 33 95 16 45 31
82 34 82 3 0 17 -35 32 -78z"/>
<path d="M4131 2798 c-94 -238 -181 -463 -181 -470 0 -5 19 -8 42 -6 40 3 43
5 62 53 11 28 25 53 30 57 6 4 51 8 99 8 l88 0 26 -60 26 -60 44 0 c23 0 43 2
43 4 0 6 -157 413 -177 459 -15 34 -20 37 -55 37 -31 0 -40 -5 -47 -22z m82
-190 c15 -42 27 -81 27 -87 0 -7 -25 -11 -65 -11 -36 0 -65 2 -65 5 0 21 64
184 70 178 4 -4 19 -42 33 -85z"/>
<path d="M4480 2780 l0 -40 40 0 40 0 0 -170 0 -170 -40 0 -40 0 0 -40 0 -40
125 0 125 0 0 40 0 40 -40 0 -40 0 0 170 0 170 40 0 40 0 0 40 0 40 -125 0
-125 0 0 -40z"/>
<path d="M6141 2806 c-48 -17 -108 -71 -133 -119 -32 -59 -32 -184 -1 -242 45
-85 118 -127 218 -128 62 0 138 25 162 54 9 12 8 21 -8 45 l-19 31 -48 -24
c-109 -56 -224 5 -239 127 -16 140 128 232 242 155 40 -27 54 -24 76 18 8 14
6 23 -8 39 -46 52 -162 73 -242 44z"/>
<path d="M8770 2570 l0 -250 46 0 47 0 -5 176 c-3 125 -1 172 6 162 6 -7 66
-86 134 -176 122 -162 123 -162 162 -162 l40 0 0 251 0 250 -42 -3 -43 -3 3
-180 3 -180 -136 183 -135 182 -40 0 -40 0 0 -250z"/>
<path d="M7400 2740 l0 -50 -35 0 c-33 0 -35 -2 -35 -35 0 -26 4 -35 18 -36 9
-1 24 -2 32 -3 12 -1 15 -26 18 -148 l3 -148 39 0 39 0 3 148 c3 161 -2 147
61 151 13 1 17 10 17 36 0 34 -1 35 -40 35 l-40 0 0 50 0 50 -40 0 -40 0 0
-50z"/>
<path d="M8520 2740 l0 -50 -35 0 c-33 0 -35 -2 -35 -35 0 -26 4 -35 18 -36 9
-1 24 -2 32 -3 12 -1 15 -26 18 -148 l3 -148 39 0 39 0 3 148 c3 139 4 147 23
148 54 3 55 3 55 39 0 34 -1 35 -40 35 l-40 0 0 50 0 50 -40 0 -40 0 0 -50z"/>
<path d="M9780 2740 l0 -50 -35 0 c-33 0 -35 -2 -35 -35 0 -28 4 -35 20 -36
11 -1 26 -2 33 -3 9 -1 13 -39 15 -148 l3 -148 39 0 39 0 3 148 3 147 35 0
c33 0 35 2 38 38 l3 37 -40 0 -41 0 0 50 0 50 -40 0 -40 0 0 -50z"/>
<path d="M880 2689 c-33 -13 -78 -57 -98 -94 -21 -41 -20 -131 3 -178 22 -46
72 -86 122 -97 50 -12 126 6 163 37 l30 25 -20 28 -21 29 -36 -25 c-52 -35
-97 -32 -139 10 -30 30 -34 41 -34 84 0 60 25 97 76 111 39 11 76 1 107 -27
16 -15 20 -14 44 11 23 23 25 28 12 43 -37 44 -148 67 -209 43z"/>
<path d="M1236 2678 c-106 -62 -117 -251 -20 -327 59 -46 139 -46 198 0 l26
20 0 -25 c0 -24 4 -26 40 -26 l40 0 0 185 0 185 -40 0 c-33 0 -40 -3 -40 -20
0 -26 -8 -25 -37 2 -35 33 -116 36 -167 6z m164 -73 c24 -15 42 -69 37 -114
-4 -34 -13 -52 -36 -73 -94 -84 -212 34 -153 152 26 52 97 69 152 35z"/>
<path d="M2165 2684 c-75 -39 -111 -107 -103 -198 9 -103 80 -168 187 -169 55
0 151 33 151 51 0 4 -9 18 -19 31 -18 24 -19 24 -54 8 -68 -32 -143 -14 -172
43 -8 16 -15 31 -15 35 0 3 63 5 140 5 139 0 140 0 140 23 0 71 -48 149 -107
173 -43 18 -111 18 -148 -2z m119 -68 c30 -13 56 -50 43 -62 -2 -3 -46 -3 -97
-2 l-92 3 22 28 c37 46 71 55 124 33z"/>
<path d="M2626 2675 c-44 -30 -46 -30 -46 -5 0 17 -7 20 -40 20 l-40 0 0 -185
0 -185 40 0 40 0 0 125 c0 120 1 127 25 150 24 25 76 34 102 17 24 -15 33 -66
33 -178 l0 -114 40 0 40 0 0 125 c0 121 1 127 25 151 20 20 33 25 67 22 60 -4
68 -25 68 -175 l0 -123 40 0 40 0 0 140 c0 159 -11 199 -59 224 -55 29 -122
15 -178 -36 -21 -20 -21 -20 -28 2 -8 25 -60 50 -103 50 -16 0 -46 -11 -66
-25z"/>
<path d="M5142 2687 c-61 -19 -122 -110 -122 -181 0 -82 68 -167 146 -184 180
-39 302 135 209 295 -42 71 -139 100 -233 70z m112 -71 c47 -19 66 -51 66
-109 0 -42 -5 -54 -34 -83 -26 -26 -42 -34 -71 -34 -29 0 -45 8 -71 34 -28 28
-34 41 -34 78 0 57 29 104 72 117 18 5 34 10 36 10 1 1 18 -5 36 -13z"/>
<path d="M5630 2683 c-14 -9 -29 -23 -33 -30 -11 -18 -27 -7 -27 18 0 16 -7
19 -40 19 l-40 0 0 -185 0 -185 45 0 45 0 0 120 c0 106 2 122 20 140 22 22 62
35 89 27 15 -4 21 2 26 30 3 19 9 41 12 49 8 21 -66 19 -97 -3z"/>
<path d="M6562 2679 c-107 -53 -135 -205 -55 -300 37 -43 80 -62 144 -62 128
0 216 110 187 236 -27 120 -163 182 -276 126z m150 -70 c23 -12 48 -67 48
-104 0 -59 -51 -115 -103 -115 -67 0 -112 53 -109 127 3 86 88 133 164 92z"/>
<path d="M7053 2675 c-41 -23 -43 -23 -43 -4 0 16 -7 19 -40 19 l-40 0 0 -185
0 -185 40 0 40 0 0 124 c0 117 1 127 24 153 19 22 32 28 66 28 64 0 70 -15 70
-172 l0 -133 45 0 45 0 0 128 c0 70 -5 144 -10 164 -24 83 -112 112 -197 63z"/>
<path d="M7715 2683 c-69 -36 -104 -96 -105 -175 0 -79 36 -139 104 -175 43
-23 137 -19 191 7 25 12 45 25 45 28 0 4 -9 18 -19 31 -18 24 -19 24 -54 8
-68 -32 -143 -14 -172 43 -8 16 -15 31 -15 35 0 3 63 5 140 5 139 0 140 0 140
23 0 71 -48 149 -107 173 -43 18 -111 17 -148 -3z m119 -67 c30 -13 56 -50 43
-62 -2 -3 -46 -3 -97 -2 l-93 3 27 32 c23 27 36 34 79 42 4 0 23 -5 41 -13z"/>
<path d="M8173 2675 c-41 -23 -43 -23 -43 -4 0 16 -7 19 -40 19 l-40 0 0 -185
0 -185 40 0 40 0 0 124 c0 117 1 127 24 153 19 22 32 28 66 28 64 0 70 -15 70
-172 l0 -133 45 0 45 0 0 128 c0 70 -5 144 -10 164 -24 83 -112 112 -197 63z"/>
<path d="M9405 2683 c-69 -36 -104 -96 -105 -175 0 -79 36 -139 104 -175 45
-23 135 -20 190 6 25 13 46 26 46 29 0 4 -9 18 -19 31 -18 24 -19 24 -54 8
-68 -32 -143 -14 -172 43 -8 16 -15 31 -15 35 0 3 63 5 140 5 139 0 140 0 140
23 0 71 -48 149 -107 173 -43 18 -111 17 -148 -3z m119 -67 c30 -13 56 -50 43
-62 -2 -3 -46 -3 -97 -2 l-93 3 27 32 c23 27 36 34 79 42 4 0 23 -5 41 -13z"/>
<path d="M10670 2684 c-71 -31 -110 -92 -110 -173 0 -61 13 -97 48 -134 68
-72 173 -82 258 -25 90 61 100 226 17 300 -51 46 -147 61 -213 32z m154 -92
c34 -36 43 -87 23 -134 -21 -50 -57 -72 -108 -65 -48 6 -74 28 -89 73 -15 43
-5 86 27 124 21 26 32 30 72 30 39 0 52 -5 75 -28z"/>
<path d="M11180 2693 c-8 -3 -27 -17 -42 -31 l-28 -26 0 27 c0 25 -3 27 -45
27 l-45 0 0 -185 0 -185 45 0 45 0 0 119 0 119 32 27 c24 20 40 26 64 23 31
-4 33 -2 43 39 6 23 11 44 11 47 0 7 -60 6 -80 -1z"/>
<path d="M3120 2683 c0 -4 36 -90 81 -191 l82 -182 -32 -70 c-17 -39 -31 -72
-31 -75 0 -3 19 -5 43 -5 l42 0 24 63 c19 48 159 389 188 455 4 9 -9 12 -45
12 l-50 0 -48 -136 c-36 -101 -51 -131 -56 -117 -5 10 -30 70 -57 133 l-48
115 -47 3 c-25 2 -46 -1 -46 -5z"/>
<path d="M9982 2678 c3 -7 31 -91 63 -186 l57 -173 30 3 c27 3 33 10 70 100
22 54 43 96 47 94 4 -3 24 -48 46 -100 38 -91 42 -96 70 -96 30 0 30 1 89 173
32 94 61 178 64 185 3 8 -9 12 -40 12 l-44 0 -34 -107 c-18 -60 -35 -112 -38
-117 -3 -6 -25 31 -48 82 -36 78 -46 92 -66 92 -20 0 -29 -13 -62 -90 -21 -49
-41 -90 -45 -90 -4 0 -22 52 -41 115 l-35 115 -44 0 c-30 0 -42 -4 -39 -12z"/>
<path d="M3587 2393 c-14 -13 -6 -50 13 -68 27 -25 25 -51 -7 -81 -24 -23 -25
-26 -11 -41 15 -14 19 -14 46 6 82 58 81 191 -2 191 -18 0 -36 -3 -39 -7z"/>
<path d="M5431 1786 c-7 -8 -11 -27 -9 -42 6 -56 90 -47 96 10 2 16 -2 32 -10
37 -21 14 -64 10 -77 -5z"/>
<path d="M2853 1773 c-10 -3 -13 -66 -13 -264 l0 -259 45 0 45 0 0 259 0 259
-22 6 c-26 7 -38 7 -55 -1z"/>
<path d="M5918 1772 c-17 -3 -18 -24 -18 -263 l0 -260 43 3 42 3 5 130 c3 72
8 135 13 142 13 21 72 35 101 23 38 -14 46 -46 46 -181 l0 -119 40 0 40 0 0
143 c0 156 -12 199 -60 225 -35 18 -115 10 -151 -17 l-29 -22 0 96 c0 69 -3
95 -12 96 -7 0 -20 2 -28 3 -8 1 -23 1 -32 -2z"/>
<path d="M7668 1773 c-17 -4 -18 -25 -18 -264 l0 -259 40 0 c34 0 40 3 40 21
0 20 2 20 23 7 126 -83 266 1 267 160 0 147 -130 235 -247 167 l-43 -24 0 95
c0 52 -4 94 -9 94 -5 0 -15 2 -23 4 -7 2 -21 2 -30 -1z m207 -227 c105 -44 73
-226 -40 -226 -24 0 -44 9 -66 28 -60 54 -47 167 24 197 40 18 41 18 82 1z"/>
<path d="M8558 1773 c-17 -4 -18 -25 -18 -264 l0 -259 45 0 45 0 0 260 c0 218
-2 260 -14 260 -8 0 -20 2 -28 4 -7 2 -21 2 -30 -1z"/>
<path d="M2245 1723 c-18 -84 -20 -88 -50 -89 -53 -2 -55 -3 -55 -34 0 -27 3
-30 33 -30 19 0 36 -2 39 -5 2 -3 0 -32 -5 -65 l-10 -60 -38 0 c-38 0 -39 -1
-39 -35 0 -32 2 -35 30 -35 33 0 35 -6 21 -77 l-8 -43 37 0 38 0 8 58 9 57 58
3 59 3 -7 -43 c-3 -24 -9 -51 -11 -60 -5 -15 1 -18 34 -18 l39 0 9 58 9 57 43
3 c41 3 42 4 42 38 0 32 -2 34 -36 34 l-36 0 6 38 c17 96 14 92 57 92 37 0 39
2 39 30 0 17 -4 31 -10 31 -5 1 -14 3 -20 4 -5 1 -17 3 -26 4 -10 1 -14 7 -11
19 3 9 8 34 12 55 l6 38 -38 -3 c-37 -3 -38 -4 -46 -55 -9 -59 -24 -69 -86
-58 l-38 6 8 42 c13 65 12 67 -26 67 -30 0 -35 -4 -40 -27z m151 -209 c-4 -31
-9 -61 -12 -65 -3 -5 -30 -9 -60 -9 -55 0 -56 0 -50 28 3 15 8 44 12 65 l6 37
55 0 56 0 -7 -56z"/>
<path d="M6510 1738 c0 -7 34 -119 74 -248 l74 -235 33 0 c33 0 33 0 88 138
31 75 59 137 62 137 4 0 33 -63 65 -140 58 -139 58 -140 90 -140 28 0 34 5 43
33 61 194 141 454 141 460 0 4 -20 7 -45 7 -41 0 -45 -2 -53 -32 -42 -145 -93
-312 -95 -315 -2 -2 -26 57 -53 129 l-49 133 -40 0 -39 0 -34 -85 c-18 -47
-41 -108 -51 -136 l-17 -52 -53 179 -54 179 -43 0 c-29 0 -44 -4 -44 -12z"/>
<path d="M5668 1673 c-3 -48 -3 -48 -40 -51 -36 -3 -38 -5 -38 -38 0 -28 4
-34 23 -35 12 -1 29 -2 37 -3 12 -1 15 -26 18 -148 l3 -148 39 0 39 0 3 148
c2 109 6 147 16 148 6 1 23 2 37 3 22 1 25 6 25 36 0 34 -1 35 -40 35 l-40 0
0 50 0 50 -39 0 -40 0 -3 -47z"/>
<path d="M3115 1617 c-78 -36 -128 -143 -105 -228 25 -93 90 -141 189 -141 60
0 128 24 137 47 3 7 -2 25 -11 38 l-16 26 -35 -21 c-51 -30 -119 -21 -156 21
-51 57 -44 61 107 61 l135 0 0 40 c0 96 -63 162 -158 167 -34 2 -69 -2 -87
-10z m142 -89 c43 -40 31 -48 -72 -48 -52 0 -95 3 -95 6 0 18 26 48 53 60 40
17 84 10 114 -18z"/>
<path d="M3525 1616 c-62 -27 -105 -103 -105 -187 0 -45 43 -132 77 -154 61
-40 131 -38 187 6 l26 20 0 -25 c0 -24 3 -26 45 -26 l45 0 0 185 0 185 -45 0
c-38 0 -45 -3 -45 -20 0 -18 -2 -18 -36 5 -42 28 -100 32 -149 11z m153 -89
c71 -65 31 -207 -59 -207 -69 0 -109 45 -109 124 0 97 98 146 168 83z"/>
<path d="M4040 1613 c-14 -9 -29 -23 -33 -30 -11 -18 -27 -7 -27 18 0 16 -7
19 -40 19 l-40 0 0 -185 0 -185 45 0 45 0 0 120 c0 106 2 122 20 140 22 22 62
35 89 27 15 -4 21 2 26 30 3 19 9 41 12 49 8 21 -66 19 -97 -3z"/>
<path d="M4344 1616 c-18 -8 -35 -19 -38 -25 -11 -18 -26 -13 -26 9 0 17 -7
20 -40 20 l-40 0 0 -185 0 -185 45 0 45 0 0 126 c0 69 4 134 10 144 14 26 71
43 104 30 38 -14 46 -46 46 -181 l0 -119 40 0 40 0 0 143 c0 156 -12 200 -60
224 -32 16 -87 16 -126 -1z"/>
<path d="M7315 1613 c-76 -40 -111 -106 -103 -197 9 -103 80 -168 187 -169 55
0 151 33 151 51 0 4 -9 18 -19 31 -18 24 -19 24 -54 8 -68 -32 -143 -14 -172
43 -8 16 -15 31 -15 35 0 3 63 5 140 5 139 0 140 0 140 23 0 71 -48 149 -107
173 -43 18 -111 17 -148 -3z m119 -67 c30 -13 56 -50 43 -62 -2 -3 -46 -3 -97
-2 l-93 3 27 32 c23 27 36 34 79 42 4 0 23 -5 41 -13z"/>
<path d="M8190 1614 c-71 -31 -110 -92 -110 -173 0 -61 13 -97 48 -134 40 -43
79 -59 141 -60 82 0 154 46 180 116 26 69 4 174 -46 219 -51 46 -147 61 -213
32z m153 -90 c69 -69 25 -204 -67 -204 -78 0 -132 77 -106 154 25 76 120 104
173 50z"/>
<path d="M8805 1614 c-16 -8 -40 -25 -53 -37 -31 -29 -56 -118 -48 -172 8 -47
47 -115 80 -135 57 -36 136 -30 184 13 l22 20 0 -26 c0 -25 3 -27 45 -27 l45
0 0 185 0 185 -45 0 c-38 0 -45 -3 -45 -20 0 -18 -2 -18 -36 5 -43 29 -104 33
-149 9z m142 -75 c25 -13 53 -66 53 -98 0 -12 -6 -37 -14 -55 -47 -112 -196
-74 -196 51 0 52 19 85 59 105 34 17 61 16 98 -3z"/>
<path d="M9335 1618 c-11 -6 -30 -20 -42 -31 l-23 -20 0 26 c0 25 -3 27 -40
27 l-40 0 0 -185 0 -185 40 0 40 0 0 116 c0 115 0 116 30 146 25 25 37 29 65
26 33 -4 36 -2 45 31 5 20 10 42 10 49 0 15 -57 16 -85 0z"/>
<path d="M4810 1613 c0 -5 26 -87 58 -183 58 -172 59 -175 89 -178 29 -3 31 0
69 91 21 51 43 95 48 96 5 1 28 -41 50 -93 38 -92 41 -96 71 -96 l30 0 62 185
61 185 -42 0 -43 0 -37 -116 c-21 -64 -40 -113 -44 -109 -4 3 -23 43 -42 88
-31 69 -40 82 -62 85 -23 3 -29 -4 -64 -87 -21 -50 -41 -91 -44 -91 -4 0 -22
51 -41 113 l-35 112 -42 3 c-23 2 -42 -1 -42 -5z"/>
<path d="M5430 1435 l0 -185 40 0 40 0 0 185 0 185 -40 0 -40 0 0 -185z"/>
<path d="M9440 1617 c0 -2 38 -87 84 -189 l84 -186 -33 -76 -34 -76 44 0 43 0
43 108 c23 59 71 174 106 256 35 83 63 154 63 159 0 4 -21 7 -47 5 l-47 -3
-45 -127 c-26 -70 -49 -128 -52 -128 -3 0 -30 59 -59 130 l-54 130 -48 0 c-26
0 -48 -2 -48 -3z"/>
<path d="M9231 694 c-18 -15 -35 -42 -42 -67 -21 -77 17 -144 98 -172 42 -15
45 -32 17 -88 -14 -25 -79 -80 -107 -90 -14 -4 16 -77 32 -77 19 0 132 83 161
118 57 69 83 136 84 216 1 82 -24 134 -78 167 -48 29 -126 26 -165 -7z"/>
<path d="M9589 703 c-57 -35 -75 -111 -43 -179 16 -34 68 -74 97 -74 60 0 11
-102 -75 -156 l-38 -24 16 -33 c9 -17 18 -33 19 -35 8 -10 93 46 140 91 70 68
107 141 113 227 5 78 -17 133 -71 174 -40 31 -116 35 -158 9z"/>
<path d="M10180 480 c0 -7 217 -10 630 -10 413 0 630 3 630 10 0 7 -217 10
-630 10 -413 0 -630 -3 -630 -10z"/>
<path d="M420 460 c0 -14 8386 -14 8395 0 4 7 -1397 10 -4194 10 -2794 0
-4201 -3 -4201 -10z"/>
</g>
</svg>
